<?xml version="1.0" standalone="no"?>
<!DOCTYPE svg PUBLIC "-//W3C//DTD SVG 20010904//EN"
 "http://www.w3.org/TR/2001/REC-SVG-20010904/DTD/svg10.dtd">
<svg version="1.0" xmlns="http://www.w3.org/2000/svg"
 width="1024.000000pt" height="1024.000000pt" viewBox="0 0 1024.000000 1024.000000"
 preserveAspectRatio="xMidYMid meet">
<metadata>
Created by potrace 1.14, written by Peter Selinger 2001-2017
</metadata>
<g transform="translate(0.000000,1024.000000) scale(0.100000,-0.100000)"
fill="#000000" stroke="none">
<path d="M4897 10233 c-4 -3 -7 -204 -7 -445 l0 -438 -220 0 -220 0 0 -225 0
-225 -225 0 -225 0 0 -665 0 -665 -220 0 -220 0 0 -445 0 -445 1113 -2 1112
-3 0 -445 0 -445 -667 -3 -668 -2 0 -220 0 -220 -220 0 -220 0 0 -670 0 -671
62 -97 c33 -53 106 -164 161 -245 80 -120 103 -148 119 -144 11 3 30 -5 47
-19 16 -13 32 -24 35 -24 3 0 6 17 6 38 0 20 4 43 8 50 7 10 148 12 673 10
l664 -3 2 -1065 c2 -586 -1 -1139 -5 -1230 l-7 -165 -32 51 c-24 36 -34 66
-38 109 -3 33 -12 63 -20 69 -12 9 -15 75 -17 396 l-3 385 -121 205 c-67 113
-141 238 -165 278 l-44 72 -222 0 -223 0 0 -670 c0 -600 -2 -670 -16 -670 -8
0 -13 -4 -10 -9 4 -5 0 -12 -6 -14 -10 -4 -10 -6 -1 -6 7 -1 10 -8 6 -18 -4
-11 -3 -14 5 -9 7 4 12 2 12 -3 0 -6 -10 -11 -21 -11 -16 0 -19 -3 -11 -12 5
-7 13 -24 17 -37 6 -19 4 -23 -8 -18 -11 4 -14 2 -10 -9 3 -8 11 -13 17 -11 7
3 12 -4 12 -14 0 -13 -5 -18 -14 -14 -9 3 -12 0 -9 -9 15 -38 19 -86 7 -86
-14 0 -3 -41 14 -52 7 -5 6 -8 -4 -8 -12 0 -12 -2 -1 -9 8 -5 9 -11 3 -15 -6
-4 -15 2 -21 11 -6 10 -11 13 -11 6 0 -6 5 -15 11 -18 6 -4 8 -13 5 -21 -3 -7
0 -16 6 -20 7 -5 8 -2 3 6 -5 9 -4 11 4 6 9 -6 9 -11 0 -22 -9 -11 -8 -14 5
-14 15 0 16 -42 16 -450 l0 -450 225 0 225 0 0 445 0 445 403 2 402 3 3 217
c2 210 2 217 -18 223 -20 6 -20 12 -20 1059 0 900 2 1055 14 1065 8 7 34 11
58 9 l43 -3 0 -1287 -1 -1288 183 0 183 0 0 219 c0 211 -1 220 -20 226 -20 6
-20 15 -20 778 0 425 3 782 6 795 6 19 13 22 60 22 l54 0 0 -1020 0 -1020 225
0 225 0 0 -220 0 -220 220 0 220 0 0 -225 0 -225 225 0 225 0 0 890 0 890
-225 0 -225 0 0 445 0 445 -220 0 -220 0 -2 223 -3 222 -228 3 -227 2 2 738 3
737 -48 80 c-31 51 -52 98 -57 130 -4 28 -9 458 -9 956 -2 1017 -10 919 75
919 l44 0 0 445 0 445 -220 0 -220 0 0 665 0 665 -222 2 -223 3 -3 223 -2 222
-220 0 -220 0 0 445 0 445 -218 0 c-120 0 -222 -3 -225 -7z m1333 -4223 l0
-670 -60 0 c-55 0 -60 2 -60 23 -3 194 2 1302 6 1308 3 5 30 9 60 9 l54 0 0
-670z m-445 -1620 l0 -385 -495 0 -495 0 -3 365 c-1 201 0 375 3 388 l5 22
493 -2 492 -3 0 -385z"/>
<path d="M3118 2898 l-3 -223 -222 -3 -223 -2 0 -445 0 -445 -220 0 -220 0 0
-890 0 -890 220 0 220 0 0 225 0 225 220 0 220 0 0 220 0 220 225 0 225 0 -2
1112 -3 1113 -217 3 -218 2 -2 -222z"/>
</g>
</svg>
